<svg width="52" height="30" viewBox="0 0 52 30" fill="none" xmlns="http://www.w3.org/2000/svg">
<path d="M25.4576 22.1466C24.44 23.7461 23.4636 25.3109 21.2759 26.831C20.1057 27.6514 17.4122 29.2542 13.5835 29.2542C6.27906 29.2542 0.383301 23.9434 0.383301 14.6064C0.383301 6.44617 5.92932 0 13.7393 0C16.9033 0 19.7146 1.09387 21.7848 2.73484C23.6992 4.25801 24.5958 5.78159 25.3782 7.14901L19.9117 9.88063C19.5206 8.98378 19.0498 8.04565 17.8414 7.03121C16.5123 5.97539 15.1862 5.66379 14.0509 5.66379C9.59897 5.66379 7.25529 9.80441 7.25529 14.4124C7.25529 20.4674 10.343 23.4727 14.0509 23.4727C17.6442 23.4727 19.0911 20.973 20.0261 19.3735L25.4576 22.1467V22.1466ZM44.6073 0.858692H51.95L42.3813 28.4337H35.3536L25.9028 0.858692H33.2453L38.9471 20.4675L44.6073 0.858692Z" fill="#590099"/>
</svg>
