<svg width="31" height="30" viewBox="0 0 31 30" fill="none" xmlns="http://www.w3.org/2000/svg">
<path fill-rule="evenodd" clip-rule="evenodd" d="M15.1626 0C6.94416 0 0.287598 6.65656 0.287598 14.875C0.287598 21.4572 4.54557 27.0167 10.4584 28.9877C11.2021 29.1178 11.481 28.6716 11.481 28.2811C11.481 27.9278 11.4624 26.7564 11.4624 25.5106C7.7251 26.1986 6.75822 24.5995 6.46072 23.7628C6.29338 23.3352 5.56822 22.015 4.93604 21.6617C4.41541 21.3828 3.67166 20.6948 4.91744 20.6762C6.08885 20.6577 6.92557 21.7547 7.20447 22.2009C8.54322 24.4508 10.6815 23.8186 11.5368 23.4281C11.667 22.4612 12.0574 21.8105 12.4851 21.4386C9.17541 21.0667 5.71697 19.7837 5.71697 14.0941C5.71697 12.4764 6.29338 11.1377 7.24166 10.0964C7.09291 9.72453 6.57229 8.19984 7.39041 6.15453C7.39041 6.15453 8.63619 5.76406 11.481 7.67922C12.671 7.34453 13.9354 7.17719 15.1998 7.17719C16.4642 7.17719 17.7285 7.34453 18.9185 7.67922C21.7634 5.74547 23.0092 6.15453 23.0092 6.15453C23.8273 8.19984 23.3067 9.72453 23.1579 10.0964C24.1062 11.1377 24.6826 12.4578 24.6826 14.0941C24.6826 19.8023 21.2056 21.0667 17.8959 21.4386C18.4351 21.9034 18.8999 22.7959 18.8999 24.1905C18.8999 26.18 18.8813 27.7791 18.8813 28.2811C18.8813 28.6716 19.1603 29.1364 19.904 28.9877C22.8569 27.9907 25.4229 26.0928 27.2407 23.5612C29.0585 21.0296 30.0367 17.9917 30.0376 14.875C30.0376 6.65656 23.381 0 15.1626 0Z" fill="#590099"/>
</svg>
