<svg width="31" height="30" viewBox="0 0 31 30" fill="none" xmlns="http://www.w3.org/2000/svg">
<path d="M15.1709 11.3329C14.4704 11.3332 13.7857 11.5411 13.2034 11.9305C12.621 12.3199 12.1673 12.8732 11.8994 13.5204C11.6315 14.1677 11.5615 14.8798 11.6983 15.5668C11.8352 16.2539 12.1726 16.8849 12.668 17.3801C13.1635 17.8754 13.7946 18.2126 14.4817 18.3491C15.1687 18.4857 15.8809 18.4155 16.528 18.1474C17.1752 17.8792 17.7283 17.4252 18.1175 16.8428C18.5066 16.2603 18.7143 15.5755 18.7143 14.875C18.7136 13.9356 18.34 13.0348 17.6756 12.3707C17.0112 11.7065 16.1103 11.3332 15.1709 11.3329V11.3329ZM23.4524 8.61023C23.2721 8.15325 22.9998 7.7382 22.6524 7.39082C22.305 7.04344 21.89 6.77114 21.433 6.59082C20.0385 6.04031 16.7182 6.16383 15.1709 6.16383C13.6236 6.16383 10.3066 6.03566 8.90813 6.59082C8.45115 6.77114 8.03609 7.04344 7.68871 7.39082C7.34133 7.7382 7.06903 8.15325 6.88871 8.61023C6.33887 10.0048 6.46172 13.3284 6.46172 14.8743C6.46172 16.4203 6.33887 19.7399 6.89137 21.1391C7.07169 21.5961 7.34399 22.0111 7.69137 22.3585C8.03875 22.7059 8.4538 22.9782 8.91078 23.1585C10.3053 23.709 13.6256 23.5855 15.1736 23.5855C16.7215 23.5855 20.0371 23.7137 21.4357 23.1585C21.8926 22.9782 22.3077 22.7059 22.6551 22.3585C23.0025 22.0111 23.2748 21.5961 23.4551 21.1391C24.0096 19.7446 23.8821 16.4209 23.8821 14.875C23.8821 13.3291 24.0096 10.0101 23.4551 8.6109L23.4524 8.61023ZM15.1709 20.3203C14.0939 20.3203 13.0411 20.001 12.1456 19.4026C11.2502 18.8043 10.5522 17.9538 10.1401 16.9588C9.72794 15.9638 9.62011 14.869 9.83022 13.8127C10.0403 12.7564 10.5589 11.7861 11.3205 11.0246C12.082 10.263 13.0523 9.74443 14.1086 9.53432C15.1649 9.32421 16.2597 9.43204 17.2547 9.84419C18.2497 10.2563 19.1002 10.9543 19.6985 11.8497C20.2968 12.7452 20.6162 13.798 20.6162 14.875C20.6171 15.5903 20.4768 16.2988 20.2035 16.9599C19.9301 17.6209 19.5291 18.2215 19.0233 18.7274C18.5174 19.2332 17.9168 19.6342 17.2558 19.9076C16.5947 20.1809 15.8862 20.3212 15.1709 20.3203V20.3203ZM20.8407 10.4723C20.5893 10.4724 20.3434 10.398 20.1343 10.2584C19.9252 10.1188 19.7622 9.92034 19.6659 9.68811C19.5696 9.45587 19.5444 9.20029 19.5933 8.95369C19.6423 8.7071 19.7633 8.48056 19.941 8.30274C20.1187 8.12492 20.3452 8.0038 20.5918 7.9547C20.8384 7.90561 21.094 7.93074 21.3262 8.02692C21.5585 8.1231 21.7571 8.28601 21.8968 8.49504C22.0365 8.70407 22.111 8.94984 22.111 9.20125C22.1117 9.3682 22.0794 9.53365 22.0161 9.68811C21.9527 9.84256 21.8594 9.98298 21.7416 10.1013C21.6239 10.2196 21.4839 10.3136 21.3297 10.3777C21.1756 10.4418 21.0103 10.4748 20.8433 10.4749L20.8407 10.4723ZM26.8584 0H3.4834C2.63802 0 1.82727 0.335825 1.2295 0.933597C0.631723 1.53137 0.295898 2.34212 0.295898 3.1875L0.295898 26.5625C0.295898 27.4079 0.631723 28.2186 1.2295 28.8164C1.82727 29.4142 2.63802 29.75 3.4834 29.75H26.8584C27.7038 29.75 28.5145 29.4142 29.1123 28.8164C29.7101 28.2186 30.0459 27.4079 30.0459 26.5625V3.1875C30.0459 2.34212 29.7101 1.53137 29.1123 0.933597C28.5145 0.335825 27.7038 0 26.8584 0V0ZM25.7215 19.2578C25.6359 20.9598 25.2474 22.4679 24.0049 23.707C22.7625 24.9462 21.2557 25.3426 19.5557 25.4236C17.8019 25.5226 12.5439 25.5226 10.7901 25.4236C9.08809 25.338 7.58531 24.9488 6.34086 23.707C5.09641 22.4652 4.70527 20.9565 4.62426 19.2578C4.52531 17.5034 4.52531 12.2446 4.62426 10.4922C4.70992 8.7902 5.09375 7.28211 6.34086 6.04297C7.58797 4.80383 9.09473 4.41203 10.7901 4.33102C12.5439 4.23207 17.8019 4.23207 19.5557 4.33102C21.2577 4.41668 22.7651 4.80582 24.0049 6.04762C25.2447 7.28941 25.6405 8.79816 25.7215 10.5002C25.8205 12.248 25.8205 17.502 25.7215 19.2578Z" fill="#590099"/>
</svg>
