<svg width="30" height="30" viewBox="0 0 30 30" fill="none" xmlns="http://www.w3.org/2000/svg">
<path fill-rule="evenodd" clip-rule="evenodd" d="M0.191407 2.43207C0.191407 1.78705 0.453269 1.16844 0.919386 0.71234C1.3855 0.256238 2.01769 3.24229e-06 2.67688 3.24229e-06H27.4532C27.7799 -0.000518835 28.1035 0.062013 28.4054 0.184018C28.7074 0.306024 28.9817 0.485107 29.2129 0.711015C29.444 0.936923 29.6273 1.20522 29.7523 1.50054C29.8773 1.79587 29.9416 2.11242 29.9414 2.43207V26.676C29.9418 26.9957 29.8777 27.3124 29.7529 27.6079C29.628 27.9033 29.4449 28.1718 29.2139 28.3979C28.9829 28.6241 28.7087 28.8034 28.4068 28.9257C28.1049 29.0481 27.7813 29.1109 27.4546 29.1107H2.67688C2.35037 29.1107 2.02706 29.0478 1.72542 28.9255C1.42378 28.8032 1.14972 28.6239 0.918908 28.3979C0.688092 28.172 0.505041 27.9037 0.380214 27.6085C0.255387 27.3132 0.191229 26.9968 0.191407 26.6773V2.43207ZM11.967 11.0991H15.9954V13.0787C16.5769 11.9407 18.0644 10.9165 20.2997 10.9165C24.5851 10.9165 25.6006 13.1832 25.6006 17.3421V25.0458H21.2639V18.2895C21.2639 15.9209 20.6824 14.5845 19.2057 14.5845C17.157 14.5845 16.3051 16.0255 16.3051 18.2895V25.0458H11.967V11.0991ZM4.5295 24.8645H8.86759V10.9165H4.5295V24.8632V24.8645ZM9.48828 6.36732C9.49646 6.73077 9.43037 7.09216 9.29388 7.43027C9.15739 7.76839 8.95326 8.07643 8.69346 8.3363C8.43366 8.59618 8.12343 8.80266 7.78098 8.94363C7.43852 9.08459 7.07074 9.15721 6.69922 9.15721C6.3277 9.15721 5.95992 9.08459 5.61746 8.94363C5.27501 8.80266 4.96478 8.59618 4.70498 8.3363C4.44518 8.07643 4.24105 7.76839 4.10456 7.43027C3.96807 7.09216 3.90198 6.73077 3.91016 6.36732C3.92621 5.65391 4.22711 4.97502 4.74841 4.47603C5.26971 3.97703 5.96997 3.69762 6.69922 3.69762C7.42847 3.69762 8.12873 3.97703 8.65003 4.47603C9.17133 4.97502 9.47223 5.65391 9.48828 6.36732Z" fill="#590099"/>
</svg>
