<svg width="30" height="30" viewBox="0 0 30 30" fill="none" xmlns="http://www.w3.org/2000/svg">
<path fill-rule="evenodd" clip-rule="evenodd" d="M29.75 14.875C29.75 23.0897 23.0897 29.75 14.875 29.75C6.66028 29.75 0 23.0897 0 14.875C0 6.66028 6.66028 0 14.875 0C23.0897 0 29.75 6.66028 29.75 14.875ZM15.408 10.9815C13.9614 11.5827 11.0695 12.8284 6.73342 14.7176C6.02933 14.9977 5.65994 15.2717 5.62647 15.5394C5.56945 15.9931 6.13718 16.1716 6.9082 16.4133C7.01356 16.4468 7.12265 16.4803 7.23421 16.5174C7.99407 16.7641 9.01549 17.0529 9.54603 17.0641C10.0282 17.074 10.5662 16.8757 11.16 16.4691C15.2109 13.7333 17.3021 12.3512 17.4335 12.3215C17.5265 12.3004 17.6554 12.2731 17.7422 12.3512C17.8289 12.4281 17.8203 12.5743 17.8116 12.614C17.7546 12.8532 15.5307 14.9221 14.3779 15.9931C14.0184 16.3266 13.7643 16.5633 13.7123 16.6179C13.5958 16.7381 13.4768 16.8534 13.3627 16.9637C12.6561 17.643 12.1281 18.1537 13.3925 18.9867C13.9999 19.3871 14.4858 19.7181 14.9704 20.0478C15.4998 20.4085 16.0278 20.768 16.7121 21.2167C16.8856 21.3307 17.0517 21.4485 17.2141 21.5638C17.8302 22.0038 18.3843 22.398 19.0685 22.3361C19.4652 22.2989 19.8767 21.9258 20.085 20.8114C20.5771 18.176 21.5464 12.469 21.7708 10.1162C21.7845 9.9209 21.7761 9.72464 21.746 9.53116C21.728 9.37488 21.6519 9.23109 21.5328 9.12829C21.3555 8.98326 21.0804 8.95227 20.9564 8.95475C20.3973 8.96467 19.5396 9.26341 15.408 10.9815V10.9815Z" fill="#590099"/>
</svg>
