<svg width="30" height="30" viewBox="0 0 30 30" fill="none" xmlns="http://www.w3.org/2000/svg">
<path d="M14.9707 6.02969C10.143 6.02969 6.21836 9.9543 6.21172 14.782C6.21172 16.4355 6.67656 18.0492 7.55313 19.4371L7.75898 19.7691L6.87578 22.9965L10.1895 22.1266L10.5082 22.3191C11.8496 23.116 13.3902 23.541 14.9641 23.541H14.9707C19.7918 23.541 23.8227 19.6164 23.8227 14.7887C23.8227 12.4512 22.8133 10.2531 21.1598 8.59961C19.4996 6.93945 17.3082 6.02969 14.9707 6.02969ZM20.1172 18.5406C19.898 19.1582 18.8488 19.716 18.3441 19.7891C17.5074 19.9152 16.8566 19.8488 15.1898 19.1316C12.5535 17.9895 10.827 15.3332 10.6941 15.1605C10.5613 14.9879 9.61836 13.7328 9.61836 12.4379C9.61836 11.143 10.2957 10.5055 10.5414 10.2398C10.7805 9.97422 11.066 9.90781 11.2453 9.90781C11.418 9.90781 11.5973 9.90781 11.75 9.91445C11.9094 9.92109 12.1285 9.85469 12.341 10.366C12.5602 10.8906 13.0848 12.1855 13.1512 12.3184C13.2176 12.4512 13.2641 12.6039 13.1711 12.7766C12.6664 13.7859 12.1285 13.7461 12.4008 14.2109C13.4168 15.9574 14.4328 16.5617 15.9801 17.3387C16.2457 17.4715 16.3984 17.4516 16.5512 17.2723C16.7039 17.0996 17.2086 16.502 17.3812 16.243C17.5539 15.9773 17.7332 16.0238 17.9723 16.1102C18.2113 16.1965 19.5063 16.834 19.7719 16.9668C20.0375 17.0996 20.2102 17.166 20.2766 17.2723C20.3363 17.3984 20.3363 17.9297 20.1172 18.5406ZM26.6582 0H3.2832C1.52344 0 0.0957031 1.42773 0.0957031 3.1875V26.5625C0.0957031 28.3223 1.52344 29.75 3.2832 29.75H26.6582C28.418 29.75 29.8457 28.3223 29.8457 26.5625V3.1875C29.8457 1.42773 28.418 0 26.6582 0ZM14.9641 25.3141C13.1977 25.3141 11.4645 24.8691 9.93047 24.0324L4.3457 25.5L5.83984 20.0414C4.9168 18.4477 4.43203 16.6348 4.43203 14.7754C4.43867 8.97148 9.16016 4.25 14.9641 4.25C17.7797 4.25 20.4227 5.3457 22.4148 7.33789C24.4004 9.33008 25.5957 11.973 25.5957 14.7887C25.5957 20.5926 20.768 25.3141 14.9641 25.3141Z" fill="#590099"/>
</svg>
