<svg width="59" height="59" viewBox="0 0 59 59" fill="none" xmlns="http://www.w3.org/2000/svg">
<path d="M27.5594 39.0594C28.0865 39.5865 28.7458 39.8385 29.5374 39.8155C30.329 39.7925 30.9873 39.5165 31.5125 38.9875C32.0396 38.4604 32.3031 37.7896 32.3031 36.975C32.3031 36.1604 32.0396 35.4896 31.5125 34.9625L28.925 32.375H38.1969C39.0115 32.375 39.6823 32.1 40.2094 31.5499C40.7365 30.9998 41 30.3165 41 29.5C41 28.6854 40.724 28.0031 40.172 27.453C39.62 26.9029 38.9377 26.6269 38.125 26.625H28.925L31.5844 23.9656C32.1115 23.4385 32.3635 22.7792 32.3405 21.9876C32.3175 21.196 32.0415 20.5377 31.5125 20.0125C30.9854 19.4854 30.3146 19.2219 29.5 19.2219C28.6854 19.2219 28.0146 19.4854 27.4875 20.0125L20.0125 27.4875C19.4854 28.0146 19.2219 28.6854 19.2219 29.5C19.2219 30.3146 19.4854 30.9854 20.0125 31.5125L27.5594 39.0594ZM29.5 58.25C25.5229 58.25 21.7854 57.4948 18.2875 55.9845C14.7896 54.4742 11.7469 52.4262 9.15938 49.8406C6.57188 47.2531 4.52392 44.2104 3.0155 40.7125C1.50708 37.2146 0.751917 33.4771 0.75 29.5C0.75 25.5229 1.50517 21.7854 3.0155 18.2875C4.52583 14.7896 6.57379 11.7469 9.15938 9.15938C11.7469 6.57188 14.7896 4.52392 18.2875 3.0155C21.7854 1.50708 25.5229 0.751917 29.5 0.75C33.4771 0.75 37.2146 1.50517 40.7125 3.0155C44.2104 4.52583 47.2531 6.57379 49.8406 9.15938C52.4281 11.7469 54.477 14.7896 55.9874 18.2875C57.4977 21.7854 58.2519 25.5229 58.25 29.5C58.25 33.4771 57.4948 37.2146 55.9845 40.7125C54.4742 44.2104 52.4262 47.2531 49.8406 49.8406C47.2531 52.4281 44.2104 54.477 40.7125 55.9874C37.2146 57.4977 33.4771 58.2519 29.5 58.25Z" fill="#E31C1C"/>
</svg>
