<svg width="59" height="59" viewBox="0 0 59 59" fill="none" xmlns="http://www.w3.org/2000/svg">
<path d="M31.4406 39.0594C30.9135 39.5865 30.2542 39.8385 29.4626 39.8155C28.671 39.7925 28.0127 39.5165 27.4875 38.9875C26.9604 38.4604 26.6969 37.7896 26.6969 36.975C26.6969 36.1604 26.9604 35.4896 27.4875 34.9625L30.075 32.375H20.8031C19.9885 32.375 19.3177 32.1 18.7906 31.5499C18.2635 30.9998 18 30.3165 18 29.5C18 28.6854 18.276 28.0031 18.828 27.453C19.38 26.9029 20.0623 26.6269 20.875 26.625H30.075L27.4156 23.9656C26.8885 23.4385 26.6365 22.7792 26.6595 21.9876C26.6825 21.196 26.9585 20.5377 27.4875 20.0125C28.0146 19.4854 28.6854 19.2219 29.5 19.2219C30.3146 19.2219 30.9854 19.4854 31.5125 20.0125L38.9875 27.4875C39.5146 28.0146 39.7781 28.6854 39.7781 29.5C39.7781 30.3146 39.5146 30.9854 38.9875 31.5125L31.4406 39.0594ZM29.5 58.25C33.4771 58.25 37.2146 57.4948 40.7125 55.9845C44.2104 54.4742 47.2531 52.4262 49.8406 49.8406C52.4281 47.2531 54.4761 44.2104 55.9845 40.7125C57.4929 37.2146 58.2481 33.4771 58.25 29.5C58.25 25.5229 57.4948 21.7854 55.9845 18.2875C54.4742 14.7896 52.4262 11.7469 49.8406 9.15938C47.2531 6.57188 44.2104 4.52392 40.7125 3.0155C37.2146 1.50708 33.4771 0.751917 29.5 0.75C25.5229 0.75 21.7854 1.50517 18.2875 3.0155C14.7896 4.52583 11.7469 6.57379 9.15937 9.15938C6.57187 11.7469 4.52296 14.7896 3.01263 18.2875C1.50229 21.7854 0.748083 25.5229 0.75 29.5C0.75 33.4771 1.50517 37.2146 3.0155 40.7125C4.52583 44.2104 6.57379 47.2531 9.15937 49.8406C11.7469 52.4281 14.7896 54.477 18.2875 55.9874C21.7854 57.4977 25.5229 58.2519 29.5 58.25Z" fill="#E31C1C"/>
</svg>
