<svg width="60" height="38" viewBox="0 0 60 38" fill="none" xmlns="http://www.w3.org/2000/svg">
<path d="M59.7143 16.2857H54.2857V10.8571H48.8571V16.2857H43.4286V21.7143H48.8571V27.1429H54.2857V21.7143H59.7143M19 16.2857V22.8H29.8571C29.3143 25.5143 26.6 30.9429 19 30.9429C12.4857 30.9429 7.32857 25.5143 7.32857 19C7.32857 12.4857 12.4857 7.05714 19 7.05714C22.8 7.05714 25.2429 8.68571 26.6 10.0429L31.7571 5.15714C28.5 1.9 24.1571 0 19 0C8.41429 0 0 8.41429 0 19C0 29.5857 8.41429 38 19 38C29.8571 38 37.1857 30.4 37.1857 19.5429C37.1857 18.1857 37.1857 17.3714 36.9143 16.2857H19Z" fill="#E31C1C"/>
</svg>
