<svg width="38" height="40" viewBox="0 0 38 40" fill="none" xmlns="http://www.w3.org/2000/svg">
<path d="M35.7833 40C36.1352 40 36.5046 39.9911 36.8917 39.9733C37.2787 39.9541 37.6481 39.9259 38 39.8889V26.8889L27.4444 24.6667L21.3222 31.1111C18.6481 29.4074 16.1936 27.3889 13.9587 25.0556C11.7251 22.7222 9.86944 20.2222 8.39167 17.5556L14.4083 11.1667L12.4556 0H0.105553C0.0351826 0.37037 -9.53674e-07 0.759259 -9.53674e-07 1.16667V2.33333C-9.53674e-07 7.11111 1.01192 11.7681 3.03578 16.3044C5.05822 20.8422 7.7323 24.8704 11.058 28.3889C14.3823 31.9074 18.1992 34.7222 22.5087 36.8333C26.8196 38.9444 31.2444 40 35.7833 40Z" fill="#E31C1C"/>
</svg>
