<svg width="38" height="38" viewBox="0 0 38 38" fill="none" xmlns="http://www.w3.org/2000/svg">
<path d="M9.98072 31.3386L11.3563 32.1423C13.6761 33.4952 16.3145 34.2055 19 34.2C22.0063 34.2 24.945 33.3085 27.4447 31.6383C29.9443 29.9681 31.8925 27.5942 33.043 24.8168C34.1934 22.0393 34.4944 18.9831 33.9079 16.0346C33.3214 13.0861 31.8738 10.3777 29.748 8.25197C27.6223 6.12622 24.9139 4.67856 21.9654 4.09206C19.0169 3.50557 15.9607 3.80658 13.1832 4.95703C10.4058 6.10748 8.03188 8.0557 6.36168 10.5553C4.69149 13.055 3.80002 15.9937 3.80002 19C3.79448 21.6863 4.50544 24.3255 5.85962 26.6456L6.66142 28.0212L5.42072 32.5831L9.98072 31.3386ZM0.00762542 38L2.57642 28.5608C0.883787 25.6592 -0.0054922 22.3592 2.55212e-05 19C2.55212e-05 8.5063 8.50632 0 19 0C29.4937 0 38 8.5063 38 19C38 29.4937 29.4937 38 19 38C15.6423 38.0054 12.3437 37.1168 9.44302 35.4255L0.00762542 38ZM12.1429 10.0852C12.3975 10.0662 12.654 10.0662 12.9086 10.0776C13.0112 10.0852 13.1138 10.0966 13.2164 10.108C13.5185 10.1422 13.851 10.3265 13.9631 10.5811C14.5293 11.8655 15.0803 13.1594 15.6123 14.4571C15.7301 14.7459 15.6598 15.1164 15.4356 15.4774C15.2814 15.7215 15.1146 15.9574 14.9359 16.1842C14.7212 16.4597 14.2595 16.9651 14.2595 16.9651C14.2595 16.9651 14.0714 17.1893 14.1436 17.4686C14.1702 17.575 14.2576 17.7289 14.3374 17.8581L14.4495 18.0386C14.9359 18.8499 15.5895 19.6726 16.3875 20.4478C16.6155 20.6682 16.8378 20.8943 17.0772 21.1052C17.9664 21.8899 18.9734 22.5302 20.0602 23.0052L20.0697 23.009C20.2312 23.0793 20.3129 23.1173 20.5485 23.218C20.6663 23.2674 20.7879 23.3111 20.9114 23.3434C21.039 23.3759 21.1734 23.3698 21.2976 23.3258C21.4217 23.2818 21.53 23.202 21.6087 23.0964C22.9843 21.4301 23.1097 21.3218 23.1211 21.3218V21.3256C23.2167 21.2365 23.3302 21.1688 23.4541 21.1272C23.578 21.0856 23.7093 21.0709 23.8393 21.0843C23.9533 21.0919 24.0692 21.1128 24.1756 21.1603C25.1845 21.622 26.8356 22.3421 26.8356 22.3421L27.9414 22.838C28.1276 22.9273 28.2967 23.1382 28.3024 23.3415C28.31 23.4688 28.3214 23.674 28.2777 24.0502C28.2169 24.5423 28.0687 25.1332 27.9205 25.4429C27.819 25.6542 27.6843 25.848 27.5215 26.0167C27.3298 26.218 27.1199 26.4012 26.8945 26.5639C26.8165 26.6225 26.7374 26.6795 26.657 26.7349C26.4207 26.8848 26.1779 27.0243 25.9293 27.1529C25.4401 27.4127 24.8998 27.5619 24.3466 27.5899C23.9951 27.6089 23.6436 27.6355 23.2902 27.6165C23.275 27.6165 22.211 27.4512 22.211 27.4512C19.5097 26.7407 17.0115 25.4096 14.915 23.5638C14.4856 23.1857 14.0885 22.7791 13.6819 22.3744C11.9909 20.6929 10.7141 18.8784 9.93892 17.1646C9.54214 16.3234 9.32781 15.4079 9.31002 14.478C9.30219 13.3244 9.67928 12.2012 10.3816 11.286C10.5203 11.1074 10.6514 10.9212 10.8775 10.7065C11.1188 10.4785 11.2708 10.3569 11.4361 10.2733C11.6559 10.1632 11.8957 10.0985 12.141 10.0833L12.1429 10.0852Z" fill="#E31C1C"/>
</svg>
