
<svg width="243" height="243" viewBox="0 0 243 243" fill="none" xmlns="http://www.w3.org/2000/svg">
<path d="M121.044 37.0625C122.298 40.7374 123.466 44.1559 123.637 44.6687C123.978 45.5803 124.007 45.6088 125.574 45.5233L127.169 45.4379L129.932 38.1735L132.724 30.9091L131.271 30.8237C130.445 30.7667 129.733 30.8522 129.619 31.0516C129.505 31.2225 128.622 33.6724 127.625 36.4927C126.656 39.313 125.745 41.5065 125.602 41.3926C125.488 41.2786 124.662 38.8572 123.779 36.0369C122.867 33.2166 122.127 30.8806 122.098 30.8522C122.098 30.8522 121.329 30.7382 120.446 30.6243L118.794 30.4248L121.044 37.0625Z" fill="#FF0000"/>
<path d="M135.032 38.7148L134.319 46.1216L135.544 46.321C136.228 46.4349 136.883 46.4064 136.997 46.264C137.254 45.9791 138.621 31.9632 138.422 31.7923C138.365 31.7353 137.738 31.5928 137.026 31.4789L135.715 31.2795L135.032 38.7148Z" fill="#FF0000"/>
<path d="M101.274 32.1911C98.7668 32.7324 97.257 33.7579 96.2029 35.7236C95.6902 36.6922 95.5762 37.3474 95.6047 39.3415C95.6047 41.5351 95.7186 42.0194 96.5163 43.6716C97.9977 46.6913 100.647 47.9448 104.179 47.3181C107.883 46.6059 109.962 44.1559 109.962 40.481C109.962 35.6381 107.626 32.533 103.695 32.0772C102.983 32.0202 101.9 32.0487 101.274 32.1911ZM104.977 35.1538C106.914 36.4073 107.683 41.3072 106.288 43.2728C104.521 45.7228 100.903 45.4949 99.3651 42.817C98.6244 41.5636 98.254 39.0281 98.6244 37.6892C98.9378 36.4643 99.479 35.7521 100.704 34.9829C101.73 34.3277 103.838 34.4131 104.977 35.1538Z" fill="#FF0000"/>
<path d="M142.296 32.9317C142.211 33.5015 142.182 34.0143 142.239 34.0997C142.324 34.1567 143.777 34.4701 145.458 34.7834C147.167 35.0683 148.677 35.3532 148.791 35.4102C148.934 35.4387 146.911 37.3189 144.319 39.5694C141.669 41.8769 139.533 43.928 139.447 44.2698C139.39 44.6117 139.276 45.2099 139.162 45.6373C139.077 46.0931 139.077 46.4349 139.162 46.4349C139.248 46.4349 141.897 46.8907 145.031 47.432C148.193 48.0017 150.814 48.4006 150.899 48.3436C150.956 48.2581 151.07 47.7453 151.184 47.2041C151.355 46.0076 151.782 46.1785 146.569 45.2954C144.717 44.9536 143.122 44.6687 143.094 44.6117C143.037 44.5547 145.259 42.5891 147.994 40.1961C150.728 37.8031 152.979 35.6381 152.979 35.3817C152.979 35.1253 153.064 34.641 153.15 34.2992C153.292 33.7579 153.036 33.6724 148.079 32.8178C145.173 32.305 142.752 31.9062 142.666 31.9062C142.581 31.9062 142.41 32.362 142.296 32.9317Z" fill="#FF0000"/>
<path d="M156.682 35.0113C156.682 35.0968 155.856 38.3444 154.859 42.2187L153.036 49.2837L154.175 49.5686C154.802 49.7395 155.429 49.8534 155.6 49.7965C155.97 49.654 159.56 35.8375 159.303 35.5811C158.99 35.2962 156.682 34.7834 156.682 35.0113Z" fill="#FF0000"/>
<path d="M81.7597 36.5782C78.9109 37.3759 78.4836 37.5468 78.569 38.0311C78.7115 38.8002 82.3294 51.6767 82.4434 51.7906C82.5003 51.8476 84.0957 51.4488 86.0043 50.9075C91.6164 49.3122 92.7559 48.1442 92.6989 44.0135C92.642 40.424 91.3315 37.6607 89.024 36.2933C87.4287 35.3817 85.8334 35.4387 81.7597 36.5782ZM87.8275 39.0281C89.024 40.0537 89.8787 42.4752 89.8787 44.8111C89.8787 46.321 89.7932 46.5489 89.081 47.1471C88.1409 47.8593 84.9218 48.8564 84.5799 48.5145C84.352 48.2582 81.7882 39.2276 81.9306 39.0851C82.1015 38.8287 84.8648 38.2305 85.8049 38.202C86.6026 38.1735 87.1153 38.4014 87.8275 39.0281Z" fill="#FF0000"/>
<path d="M163.833 37.1195C163.007 39.3415 159.246 50.2238 159.246 50.4232C159.246 50.5372 159.787 50.8505 160.471 51.0784L161.696 51.4773L163.234 46.9762C164.089 44.4693 164.858 42.4467 164.944 42.4467C165.029 42.4467 165.4 43.8141 165.77 45.4949C166.112 47.2041 166.682 49.6826 166.995 51.05L167.565 53.5284L168.818 54.0127C169.502 54.2691 170.157 54.4115 170.271 54.326C170.556 54.0127 175.171 40.6235 175.028 40.3956C174.971 40.3101 174.43 40.0537 173.889 39.8828C172.607 39.4555 172.692 39.313 171.211 43.7286C170.556 45.6088 169.872 47.5175 169.673 48.0018L169.302 48.8564L169.074 48.0588C168.961 47.6314 168.391 45.0675 167.821 42.3612L166.738 37.4613L165.4 36.977C164.089 36.4643 164.061 36.4643 163.833 37.1195Z" fill="#FF0000"/>
<path d="M67.5443 41.649L66.2908 42.2187L66.4618 48.2296C66.5757 51.5057 66.6612 55.1522 66.6612 56.2917V58.3428L68.114 57.7445L69.5384 57.1463L69.4815 55.2661L69.396 53.4144L72.2448 52.2179L75.065 51.0214L76.1476 52.3034C76.7458 52.9871 77.4295 53.5568 77.6289 53.5568C77.9708 53.5568 79.8795 52.7877 80.3353 52.4743C80.4777 52.3888 69.1681 41.0223 68.9402 41.0507C68.8547 41.0507 68.228 41.3356 67.5443 41.649ZM71.3047 47.1756L73.2133 49.1982L71.3332 49.9959C70.3361 50.4232 69.453 50.7366 69.3675 50.6796C69.1111 50.3947 68.8832 44.9536 69.1396 45.039C69.282 45.096 70.2506 46.0646 71.3047 47.1756Z" fill="#FF0000"/>
<path d="M176.966 49.1413C175.228 52.6737 173.775 55.6649 173.775 55.8074C173.775 56.0638 175.997 57.1463 176.168 56.9469C176.225 56.8899 176.88 55.6365 177.592 54.1836C178.304 52.7592 179.045 51.5627 179.188 51.5627C179.358 51.5627 180.64 52.1325 182.036 52.8447L184.6 54.1266L183.147 57.0039C182.378 58.5992 181.751 59.9096 181.808 59.9666C181.865 59.9951 182.407 60.3084 183.062 60.6218L184.201 61.1916L187.534 54.5254L190.868 47.8593L189.728 47.2896C189.13 46.9762 188.532 46.7198 188.446 46.7198C188.389 46.7198 187.734 47.8593 187.022 49.2837C186.309 50.6796 185.683 51.8476 185.597 51.8476C185.141 51.8476 180.327 49.2267 180.327 48.9988C180.327 48.8279 180.84 47.6884 181.467 46.4349C182.093 45.1815 182.606 44.0705 182.606 43.928C182.606 43.7001 180.811 42.7315 180.384 42.7315C180.27 42.7315 178.732 45.6088 176.966 49.1413Z" fill="#FF0000"/>
<path d="M53.1296 48.8279C49.4262 50.5372 48.0872 54.3545 49.7965 58.1719C51.2209 61.334 53.4429 63.1572 56.2347 63.4421C57.6306 63.5846 58.0579 63.4991 59.7102 62.673C62.3026 61.391 63.2427 59.9381 63.2427 57.1748C63.2427 55.5795 63.1572 55.2377 62.8439 55.3516C62.616 55.4371 61.9607 55.608 61.4195 55.6935C60.4224 55.8929 60.3939 55.9214 60.4224 57.2318C60.4794 58.8841 60.0806 59.6817 58.8841 60.3939C56.6336 61.7898 54.1836 60.4224 52.5313 56.833C51.2494 54.1266 51.9901 51.8191 54.3545 50.993C55.5225 50.5942 55.665 50.5942 56.6905 51.1639L57.7731 51.7622L58.8271 50.7081L59.8811 49.6256L58.6277 48.8849C56.9754 47.9163 55.0952 47.8878 53.1296 48.8279Z" fill="#FF0000"/>
<path d="M193.431 57.0608C190.212 59.2829 187.278 61.334 186.879 61.5904C186.196 62.0747 186.196 62.1031 186.737 62.502C188.617 63.8694 188.703 63.8694 190.098 62.8153C190.811 62.2741 191.494 61.8183 191.637 61.8183C191.751 61.8183 192.947 62.559 194.229 63.4421C196.878 65.2368 196.708 64.8949 196.138 67.9431C195.995 68.7123 196.081 68.8832 197.192 69.5669C197.847 69.9942 198.445 70.3076 198.474 70.2506C198.531 70.1937 199.328 66.7182 200.24 62.502L201.921 54.8388L201.323 54.383C199.328 52.8162 199.87 52.6167 193.431 57.0608ZM198.075 59.4538C197.676 60.9921 197.334 62.3026 197.249 62.3595C197.106 62.5305 194.001 60.4509 194.001 60.166C194.03 59.9666 198.274 56.7475 198.588 56.719C198.702 56.6905 198.474 57.9439 198.075 59.4538Z" fill="#FF0000"/>
<path d="M40.8798 57.2603C40.0252 57.5451 36.1509 60.3369 34.1283 62.1601L33.0742 63.1002L37.6322 68.8832C42.5321 75.0651 42.2473 74.8657 43.8426 73.4982L44.4978 72.9285L42.8455 70.7919C41.9339 69.5954 41.1077 68.5699 40.9653 68.4844C40.5095 68.1995 40.7374 67.8007 41.6775 67.231C42.931 66.4618 43.5862 66.5188 46.9762 67.6583L49.9389 68.6553L51.3348 67.6298C52.104 67.06 52.6737 66.5473 52.6168 66.4618C52.2179 66.0914 46.6913 64.3822 45.7797 64.3822H44.6972L45.3524 63.4991C46.2355 62.3311 46.264 60.1945 45.4094 59.0835C44.1559 57.4027 42.5606 56.7475 40.8798 57.2603ZM42.5606 60.4509C43.2443 61.1061 43.4153 61.4764 43.3298 62.445C43.3013 62.8439 39.6834 66.0914 39.256 66.0914C39.0566 66.0914 37.034 63.3281 37.034 63.0718C37.0625 62.7869 40.3386 60.28 41.0223 60.0236C41.7345 59.7672 41.8199 59.7957 42.5606 60.4509Z" fill="#FF0000"/>
<path d="M205.14 66.3478C202.462 69.3106 200.268 71.846 200.268 71.9884C200.268 72.1023 200.696 72.5581 201.237 72.9855L202.177 73.7546L205.282 70.2222C208.33 66.7751 208.986 66.1769 208.701 67.1455C208.615 67.4304 208.16 69.9373 207.647 72.7291L206.735 77.7999L207.704 78.797C208.216 79.3382 208.729 79.7655 208.815 79.7655C209.014 79.7655 218.216 69.6524 218.586 69.0542C218.671 68.8832 218.33 68.342 217.817 67.8292L216.877 66.9176L213.629 70.5355C211.834 72.5581 210.353 73.9825 210.296 73.7546C210.268 73.5267 210.666 70.9913 211.208 68.0856L212.205 62.8154L211.293 61.8753C210.809 61.391 210.325 60.9637 210.211 60.9637C210.097 60.9637 207.818 63.3851 205.14 66.3478Z" fill="#FF0000"/>
<path d="M25.1261 70.564L21.4512 74.4383L26.7499 79.6516L32.0487 84.8648L34.8404 82.1015C36.3788 80.5917 38.1735 78.7115 38.8002 77.9708L39.9682 76.6034L39.313 75.9197C38.9427 75.5209 38.5154 75.2075 38.3444 75.2075C38.1735 75.2075 36.7776 76.5179 35.2678 78.1133L32.5329 81.0475L30.9946 79.5661L29.4848 78.0563L31.6498 75.8627C34.7265 72.6721 34.6695 72.7576 33.9004 71.9314C33.53 71.5326 33.1027 71.2192 32.9603 71.2192C32.7893 71.2192 31.5359 72.4157 30.1685 73.8401L27.69 76.4895L26.4651 75.293L25.2686 74.0965L27.5761 71.5611C28.858 70.1652 30.1115 68.8548 30.3394 68.6553C30.7382 68.3135 30.7097 68.1995 30.026 67.4589C29.5987 67.0315 29.1429 66.6612 29.029 66.6612C28.915 66.6612 27.1773 68.4274 25.1261 70.564Z" fill="#FF0000"/>
<path d="M102.527 72.1593C99.479 73.014 96.6018 75.6063 95.1204 78.74C93.3257 82.5573 93.8955 85.2067 96.8582 86.6596C102.014 89.2519 108.339 86.802 110.931 81.1899C113.296 76.1191 111.102 72.3303 105.604 71.9314C104.607 71.846 103.268 71.9599 102.527 72.1593Z" fill="#FF0000"/>
<path d="M156.027 72.6436C150.102 74.1535 145.43 81.9591 148.193 85.8334C149.56 87.7706 153.691 88.7392 156.967 87.913C160.272 87.0584 162.693 85.0073 164.203 81.7597C166.055 77.7714 165.115 74.4953 161.725 73.0709C160.357 72.5012 157.451 72.3018 156.027 72.6436Z" fill="#FF0000"/>
<path d="M220.21 75.293C217.845 75.9482 214.911 78.4266 214.057 80.5062C213.544 81.7312 213.544 84.3521 214.057 85.577C214.427 86.4601 214.427 86.5171 213.943 86.4032C213.658 86.3177 213.344 86.4032 213.259 86.5741C213.145 86.745 213.173 86.8875 213.316 86.8875C213.743 86.8875 214.512 88.2549 214.341 88.7107C214 89.6223 213.287 89.4798 212.091 88.1694C211.122 87.1439 210.809 86.9729 210.553 87.2578C210.325 87.5712 210.439 87.913 211.094 88.8246C212.575 90.8757 214.655 91.5025 215.538 90.1635C215.851 89.6793 215.937 89.195 215.794 88.6822C215.623 87.9415 215.652 87.913 216.136 88.3688C217.617 89.6793 219.953 90.1066 221.891 89.4229C222.375 89.2519 222.774 89.081 222.774 89.024C222.774 88.9671 222.517 88.3403 222.204 87.5997C221.72 86.4601 221.577 86.3177 221.093 86.6026C219.669 87.3433 217.39 86.6311 216.649 85.1782C215.709 83.3835 216.222 81.7597 218.358 79.794C220.495 77.8284 222.546 77.2586 224.198 78.2272C225.651 79.1103 226.363 81.2469 225.623 82.6143C225.395 83.0416 225.537 83.298 226.506 84.0387C227.132 84.5515 227.674 84.9218 227.731 84.8648C228.243 84.2951 228.756 82.6998 228.756 81.7597C228.756 77.4865 224.341 74.1535 220.21 75.293Z" fill="#FF0000"/>
<path d="M16.5514 80.5917C15.9246 81.5318 15.3834 82.3579 15.3834 82.4434C15.3834 82.5573 16.8362 84.3806 18.631 86.5456C20.4257 88.6822 21.8785 90.4769 21.8216 90.5054C21.7361 90.5909 20.5111 90.1351 13.9305 87.6566L12.0503 86.9444L10.8538 88.6252C10.1986 89.5653 9.68582 90.4484 9.74279 90.5909C9.82826 90.8757 21.3373 99.1372 21.6222 99.1372C21.7931 99.1372 23.075 97.2855 23.075 97.0576C23.075 97.0006 21.0239 95.4908 18.517 93.7245C16.0101 91.9298 14.0159 90.4484 14.0729 90.3915C14.1299 90.3345 16.5798 91.2461 19.5426 92.4141L24.9267 94.5222L25.5535 93.753C25.8953 93.3542 26.2657 92.7844 26.3511 92.528C26.522 92.0722 24.8413 89.9357 19.2577 83.4974C18.46 82.5573 18.8019 82.7852 23.9866 86.5171L28.4877 89.7362L29.2284 88.5967C29.6557 87.97 29.9406 87.4002 29.8836 87.3718C25.8953 84.523 17.9472 78.9109 17.8618 78.9109C17.8048 78.9109 17.2066 79.6801 16.5514 80.5917Z" fill="#FF0000"/>
<path d="M75.8343 84.6369C70.1937 87.4287 70.1937 101.416 75.7773 123.751C77.5435 130.815 80.2783 139.903 80.7341 140.387C81.6173 141.242 88.2264 135.089 95.3198 126.77C102.499 118.366 113.808 104.009 119.306 96.3454C122.269 92.2147 123.01 90.1066 122.07 88.3118C121.557 87.3148 120.56 87.0014 119.392 87.4002C118.138 87.856 114.065 90.6478 108.965 94.6076C98.5959 102.67 96.3169 104.265 95.2629 104.265C94.2658 104.265 92.4711 101.986 89.0241 96.4308C84.0102 88.3118 81.9021 85.748 79.3667 84.58C77.8569 83.8963 77.3156 83.8963 75.8343 84.6369Z" fill="#FF0000"/>
<path d="M128.821 85.4916C123.266 88.2833 123.152 101.673 128.479 123.494C130.189 130.417 133.237 140.729 133.721 141.242C134.576 142.068 141.27 135.886 147.965 128.052C155.115 119.705 169.445 101.473 173.262 95.8611C175.142 93.0693 175.798 90.9042 175.199 89.4513C174.743 88.3688 173.946 87.913 172.835 88.1409C171.581 88.3973 167.394 91.2746 159.816 97.143C151.953 103.211 149.19 105.12 148.278 105.12C147.253 105.12 145.487 102.926 141.812 96.9721C135.317 86.4601 132.24 83.7538 128.821 85.4916Z" fill="#FF0000"/>
<path d="M227.645 91.9013C223.799 92.6135 220.609 93.2117 220.552 93.2687C220.495 93.3541 220.751 93.9239 221.122 94.5791C221.834 95.8611 221.805 95.8326 224.654 95.2628C225.48 95.0919 225.566 95.1774 226.99 97.5703C228.443 99.9918 228.699 100.675 228.243 100.96C228.101 101.046 227.645 101.616 227.218 102.242L226.449 103.353L227.246 104.635L228.044 105.946L232.602 99.9348C235.109 96.6587 237.274 93.7245 237.388 93.4396C237.559 93.0978 237.416 92.585 236.904 91.7588C236.305 90.8187 235.992 90.5908 235.365 90.6193C234.938 90.6478 231.463 91.2176 227.645 91.9013ZM233.884 93.5821C233.884 93.696 233.058 94.7785 232.061 96.032L230.238 98.2825L229.184 96.5448C228.585 95.6047 228.186 94.7785 228.243 94.6931C228.329 94.6361 229.525 94.3227 230.921 94.0379C233.969 93.3826 233.884 93.4111 233.884 93.5821Z" fill="#FF0000"/>
<path d="M18.0327 139.561C16.3234 140.045 15.5828 141.612 16.3234 143.179C17.2635 145.116 19.1722 145.515 21.0524 144.119C21.7361 143.635 22.1064 143.549 22.9896 143.72C25.8953 144.233 28.2598 146.028 29.5987 148.706C31.194 151.868 31.5644 154.375 31.9062 164.459C32.0487 168.932 32.3335 173.49 32.5329 174.544C32.8178 176.054 32.8178 176.453 32.5329 176.567C31.6783 176.852 30.5103 178.134 29.9691 179.415C28.5162 182.777 28.5447 187.221 30.0545 190.155C30.5103 191.095 30.6528 191.779 30.5673 192.662C30.3109 195.169 32.1341 196.85 35.0968 196.85C39.0281 196.85 42.5606 193.745 42.5606 190.298C42.5606 189.443 42.4467 188.475 42.3327 188.133C42.1333 187.591 42.3042 187.506 45.4948 186.993C48.0872 186.566 50.3093 186.452 55.1237 186.452C58.5707 186.452 62.0177 186.566 62.7869 186.68L64.1828 186.936L62.7584 188.19C59.4823 191.038 59.2544 195.198 62.3311 196.48C63.7555 197.078 66.4618 196.878 68.0856 196.024C71.6465 194.201 73.2988 190.355 71.6465 187.848C71.1338 187.05 67.9716 185.512 65.0089 184.6C55.5795 181.694 39.256 182.834 33.9858 186.794C32.8178 187.648 32.7893 187.307 33.8434 185.854C35.98 182.948 39.427 180.697 43.4437 179.586C46.2925 178.817 53.4144 178.732 58.3713 179.444C61.9607 179.957 74.011 182.464 74.3244 182.777C74.5523 183.005 75.2075 182.236 75.2075 181.723C75.2075 179.273 65.1229 176.054 53.7278 174.914C50.4802 174.573 42.0478 174.687 39.1421 175.085C38.0026 175.256 37.9456 175.228 37.6322 174.288C37.0625 172.521 36.4927 168.22 36.0369 162.38C35.3532 153.606 34.7835 150.557 33.2166 147.281C32.1056 144.917 29.7411 142.495 27.5191 141.47C25.2686 140.416 19.2577 139.191 18.0327 139.561ZM37.8317 190.098C39.0566 191.067 37.1479 194.001 35.2678 194.001C34.0713 194.001 33.6155 193.574 33.6155 192.406C33.6155 191.751 33.8719 191.238 34.4701 190.668C35.6951 189.5 36.8061 189.301 37.8317 190.098ZM67.4589 190.098C68.6838 191.067 66.7752 194.001 64.895 194.001C63.67 194.001 63.2427 193.574 63.2427 192.406C63.2427 191.751 63.4991 191.209 64.0973 190.611C65.2368 189.5 66.4333 189.301 67.4589 190.098Z" fill="#FF0000"/>
<path d="M60.1375 149.019C54.8103 149.475 43.6432 150.985 39.5979 151.839C38.5439 152.039 38.7718 152.067 40.8798 151.982C42.3042 151.896 45.6658 151.754 48.4006 151.668C53.1865 151.469 53.3575 151.498 53.158 152.01C52.1325 154.802 51.4203 156.568 51.2779 156.768C51.1924 156.882 49.2552 157.11 46.9762 157.281C41.0508 157.708 40.6519 157.964 45.8652 158.021C48.3721 158.05 50.5372 158.135 50.6796 158.221C50.8221 158.335 50.7936 158.933 50.5657 159.73C50.3663 160.5 50.1099 161.44 50.0244 161.867C49.9104 162.408 49.6541 162.665 49.3122 162.665C48.657 162.665 43.8141 164.061 43.5292 164.317C43.4153 164.431 44.7257 164.459 46.4349 164.431L49.5401 164.317L49.6256 165.713L49.7395 167.08L49.9674 165.827L50.2238 164.573L52.9586 164.773C56.833 165.058 56.9754 165.086 56.6905 166.112C56.5481 166.596 56.3487 167.878 56.2632 169.017L56.0923 171.069L56.9184 169.074C57.3742 167.963 57.9155 166.71 58.1149 166.283C58.5422 165.4 58.4283 165.4 62.1886 166.283C64.4677 166.795 64.4392 166.34 62.7014 171.211C62.0747 173.006 61.6759 174.288 61.8468 174.06C61.9892 173.832 62.8723 172.407 63.8124 170.898C64.7525 169.388 65.7211 167.992 65.9775 167.792C66.3478 167.479 66.7752 167.565 68.7408 168.362C70.564 169.103 72.843 170.214 73.7262 170.784C73.7546 170.841 73.1564 171.838 72.3587 173.006C71.5896 174.202 70.9344 175.256 70.9344 175.342C70.9344 175.769 74.8087 172.436 78.0563 169.217C81.7882 165.485 84.2666 162.209 85.3776 159.56C86.1753 157.565 86.2607 154.973 85.5201 153.549C84.409 151.327 80.7341 149.646 75.6348 149.019C72.7006 148.677 64.5246 148.677 60.1375 149.019ZM63.8124 151.668C63.8124 151.754 63.1572 152.666 62.3881 153.691C61.5904 154.717 60.7643 155.97 60.5079 156.426L60.0806 157.281L57.0324 157.081C55.3516 156.996 53.9272 156.853 53.8702 156.796C53.7848 156.711 54.2976 155.828 56.0353 153.036L57.0039 151.555H60.3939C62.2741 151.555 63.8124 151.611 63.8124 151.668ZM71.3047 151.982C72.3587 152.096 73.2134 152.238 73.2134 152.295C73.2134 152.381 72.4157 153.492 71.4471 154.774C70.4501 156.056 69.453 157.394 69.2251 157.736C68.7978 158.306 68.7408 158.335 66.2624 157.936C64.895 157.736 63.613 157.508 63.4706 157.48C63.1287 157.366 65.0374 154.859 66.8891 152.922C67.8007 151.953 68.3705 151.611 68.7693 151.697C69.1112 151.754 70.2222 151.896 71.3047 151.982ZM79.7655 155.343C80.3923 156.369 80.5062 158.107 80.0219 159.56C79.8225 160.101 79.6516 160.557 79.5946 160.614C79.5376 160.699 73.2419 159.218 72.9855 159.047C72.9285 159.018 74.068 157.85 75.5209 156.426C78.4551 153.634 78.683 153.549 79.7655 155.343ZM56.833 158.847C57.773 158.961 58.6277 159.075 58.7416 159.132C58.8271 159.218 58.6277 159.987 58.2573 160.87L57.6021 162.494L54.5255 162.408C52.8162 162.38 51.3633 162.266 51.3063 162.209C51.2209 162.123 51.5912 161.24 52.0755 160.215L53.0156 158.335L54.0696 158.506C54.6394 158.591 55.8929 158.733 56.833 158.847ZM65.0374 160.272C66.2339 160.528 67.231 160.785 67.231 160.841C67.231 160.898 66.8321 161.668 66.3478 162.551C65.6072 163.861 65.3508 164.118 64.838 163.975C64.4961 163.89 63.2427 163.605 62.0462 163.348L59.8527 162.864L60.3085 161.981C61.1346 160.329 61.8183 159.588 62.3311 159.702C62.5875 159.759 63.8124 160.015 65.0374 160.272ZM73.4983 162.237C75.8627 162.807 78.0563 163.519 78.0563 163.719C78.0563 163.776 77.5435 164.744 76.9168 165.798L75.7488 167.764L74.2674 167.194C73.4413 166.852 71.7605 166.197 70.507 165.741C69.2536 165.286 68.1711 164.858 68.1141 164.773C68.0571 164.716 68.6269 163.947 69.3675 163.092C70.2507 162.038 70.8774 161.554 71.1908 161.639C71.4471 161.725 72.4727 161.981 73.4983 162.237Z" fill="#FF0000"/>
<path d="M95.0065 157.537C94.6931 157.651 94.1233 158.107 93.7245 158.534C93.0123 159.275 93.0123 159.332 93.0123 164.516V169.758L93.8385 170.613C95.3768 172.208 98.0831 172.037 99.1657 170.242C99.65 169.473 99.7069 168.79 99.7069 164.573C99.7069 159.161 99.479 158.335 97.8552 157.651C96.7727 157.195 95.8611 157.167 95.0065 157.537ZM97.143 164.545V169.245L96.3739 169.16L95.5762 169.074L95.4908 164.801C95.4623 162.465 95.4908 160.386 95.5477 160.186C95.6332 159.987 96.032 159.816 96.4309 159.816H97.143V164.545Z" fill="#FF0000"/>
<path d="M112.954 157.537C112.64 157.651 112.071 158.107 111.672 158.534C110.96 159.275 110.96 159.332 110.96 164.516V169.758L111.786 170.613C113.324 172.208 116.03 172.037 117.113 170.242C117.597 169.473 117.654 168.79 117.654 164.573C117.654 159.161 117.426 158.335 115.803 157.651C114.72 157.195 113.808 157.167 112.954 157.537ZM115.09 164.545V169.245L114.321 169.16L113.523 169.074L113.438 164.801C113.41 162.465 113.438 160.386 113.495 160.186C113.58 159.987 113.979 159.816 114.378 159.816H115.09V164.545Z" fill="#FF0000"/>
<path d="M135.744 157.537C135.43 157.651 134.861 158.107 134.462 158.534C133.75 159.275 133.75 159.332 133.75 164.516V169.758L134.576 170.613C136.114 172.208 138.821 172.037 139.903 170.242C140.387 169.473 140.444 168.79 140.444 164.573C140.444 159.161 140.216 158.335 138.593 157.651C137.51 157.195 136.598 157.167 135.744 157.537ZM137.88 164.545V169.245L137.111 169.16L136.314 169.074L136.228 164.801C136.2 162.465 136.228 160.386 136.285 160.186C136.371 159.987 136.769 159.816 137.168 159.816H137.88V164.545Z" fill="#FF0000"/>
<path d="M179.045 157.508C178.732 157.651 178.162 158.107 177.763 158.534C177.051 159.275 177.051 159.332 177.051 164.545V169.787L177.991 170.698C178.789 171.496 179.102 171.638 180.327 171.638C181.552 171.638 181.865 171.496 182.663 170.698C183.518 169.872 183.603 169.616 183.603 167.992V166.226H182.464H181.324L181.239 167.736C181.153 169.188 181.125 169.245 180.384 169.16L179.615 169.074V164.516V159.958L180.384 159.873C181.125 159.787 181.153 159.844 181.239 161.155L181.324 162.522H182.464H183.603V160.87C183.603 159.446 183.489 159.132 182.72 158.363C181.78 157.423 180.099 157.053 179.045 157.508Z" fill="#FF0000"/>
<path d="M186.452 157.537C186.139 157.651 185.569 158.107 185.17 158.534C184.458 159.275 184.458 159.332 184.458 164.516V169.758L185.284 170.613C186.822 172.208 189.529 172.037 190.611 170.242C191.095 169.473 191.152 168.79 191.152 164.573C191.152 159.161 190.924 158.335 189.301 157.651C188.218 157.195 187.307 157.167 186.452 157.537ZM188.588 164.545V169.245L187.819 169.16L187.022 169.074L186.936 164.801C186.908 162.465 186.936 160.386 186.993 160.186C187.079 159.987 187.477 159.816 187.876 159.816H188.588V164.545Z" fill="#FF0000"/>
<path d="M216.934 157.537C216.62 157.651 216.051 158.107 215.652 158.534C214.94 159.275 214.94 159.332 214.94 164.516V169.758L215.766 170.613C217.304 172.208 220.01 172.037 221.093 170.242C221.577 169.473 221.634 168.79 221.634 164.573C221.634 159.161 221.406 158.335 219.782 157.651C218.7 157.195 217.788 157.167 216.934 157.537ZM219.07 164.545V169.245L218.301 169.16L217.503 169.074L217.418 164.801C217.39 162.465 217.418 160.386 217.475 160.186C217.56 159.987 217.959 159.816 218.358 159.816H219.07V164.545Z" fill="#FF0000"/>
<path d="M104.094 157.907C104.037 158.107 104.009 161.212 104.037 164.801L104.123 171.353H105.262H106.402L106.487 168.875L106.572 166.425L107.683 166.226C108.453 166.083 109.079 165.741 109.678 165.058C110.447 164.146 110.532 163.89 110.532 162.066C110.532 159.759 110.048 158.591 108.823 157.964C107.769 157.423 104.322 157.366 104.094 157.907ZM107.968 161.953C107.968 163.747 107.94 163.804 107.256 163.804C106.572 163.804 106.544 163.747 106.544 161.953C106.544 160.158 106.572 160.101 107.256 160.101C107.94 160.101 107.968 160.158 107.968 161.953Z" fill="#FF0000"/>
<path d="M118.908 157.907C118.851 158.107 118.822 161.212 118.851 164.801L118.936 171.353H119.933H120.93L121.073 167.28L121.215 163.177L122.184 167.052C122.725 169.188 123.323 171.069 123.523 171.24C123.722 171.41 124.32 171.496 124.833 171.439L125.773 171.353V164.516V157.679H124.776H123.779L123.637 160.813L123.494 163.947L122.81 161.24C121.87 157.537 121.87 157.537 120.332 157.537C119.563 157.537 118.993 157.679 118.908 157.907Z" fill="#FF0000"/>
<path d="M126.599 157.936C126.514 158.164 126.485 158.705 126.542 159.161C126.628 159.844 126.77 159.958 127.682 160.044L128.764 160.129L128.821 165.741L128.907 171.353H130.046H131.186L131.271 165.713L131.328 160.101H132.154C133.18 160.101 133.664 159.531 133.55 158.477L133.465 157.679L130.103 157.594C127.397 157.537 126.742 157.594 126.599 157.936Z" fill="#FF0000"/>
<path d="M144.547 157.907C144.49 158.107 144.461 161.212 144.49 164.801L144.575 171.353L146.484 171.439C148.962 171.553 150.301 171.012 150.842 169.673C151.156 168.932 151.27 167.508 151.27 164.516C151.27 159.617 150.985 158.591 149.446 157.964C148.164 157.423 144.746 157.395 144.547 157.907ZM148.563 164.516V168.79L147.794 168.875L146.996 168.961V164.516V160.072L147.794 160.158L148.563 160.243V164.516Z" fill="#FF0000"/>
<path d="M152.552 157.879C152.466 158.107 152.438 161.212 152.466 164.801L152.552 171.353H155.543H158.534L158.619 170.556C158.762 169.331 158.249 168.932 156.511 168.932H154.973V167.251V165.542L156.34 165.457L157.679 165.371V164.232V163.092L156.34 163.007L154.973 162.921V161.497V160.101H156.511C158.249 160.101 158.762 159.702 158.619 158.477L158.534 157.679L155.6 157.594C153.406 157.537 152.637 157.622 152.552 157.879Z" fill="#FF0000"/>
<path d="M162.522 157.879C162.437 158.107 162.408 161.212 162.437 164.801L162.522 171.353H165.514H168.505L168.59 170.556C168.733 169.331 168.22 168.932 166.482 168.932H164.944V167.251V165.542L166.311 165.457L167.65 165.371V164.232V163.092L166.311 163.007L164.944 162.921V161.497V160.101H166.482C168.22 160.101 168.733 159.702 168.59 158.477L168.505 157.679L165.57 157.594C163.377 157.537 162.608 157.622 162.522 157.879Z" fill="#FF0000"/>
<path d="M169.331 157.907C169.274 158.107 169.245 161.212 169.274 164.801L169.359 171.353H170.356H171.353L171.496 167.28L171.638 163.177L172.607 167.052C173.148 169.188 173.746 171.069 173.946 171.24C174.145 171.41 174.744 171.496 175.256 171.439L176.196 171.353V164.516V157.679H175.199H174.202L174.06 160.813L173.917 163.947L173.234 161.24C172.294 157.537 172.294 157.537 170.755 157.537C169.986 157.537 169.416 157.679 169.331 157.907Z" fill="#FF0000"/>
<path d="M192.406 157.907C192.349 158.107 192.32 161.212 192.349 164.801L192.434 171.353H193.431H194.428L194.571 167.28L194.713 163.177L195.682 167.052C196.223 169.188 196.821 171.069 197.021 171.24C197.22 171.41 197.818 171.496 198.331 171.439L199.271 171.353V164.516V157.679H198.274H197.277L197.135 160.813L196.992 163.947L196.309 161.24C195.369 157.537 195.369 157.537 193.83 157.537C193.061 157.537 192.491 157.679 192.406 157.907Z" fill="#FF0000"/>
<path d="M199.813 157.936C199.727 158.164 199.699 158.705 199.756 159.161C199.841 159.844 199.984 159.958 200.895 160.044L201.978 160.129L202.035 165.741L202.12 171.353H203.26H204.399L204.485 165.713L204.542 160.101H205.368C206.393 160.101 206.878 159.531 206.764 158.477L206.678 157.679L203.317 157.594C200.61 157.537 199.955 157.594 199.813 157.936Z" fill="#FF0000"/>
<path d="M207.533 157.879C207.447 158.078 207.419 161.212 207.447 164.801L207.533 171.353H208.672H209.812L209.897 168.562C209.983 165.855 209.983 165.77 210.609 165.855C211.179 165.941 211.236 166.112 211.322 168.362C211.379 169.673 211.55 170.926 211.72 171.154C211.92 171.353 212.461 171.496 213.031 171.439L214.028 171.353L213.971 168.647C213.943 166.568 213.8 165.77 213.401 165.229C212.917 164.545 212.917 164.488 213.43 163.662C213.772 163.092 213.943 162.266 213.943 161.183C213.943 159.759 213.829 159.417 213.116 158.619C212.319 157.736 212.176 157.679 209.983 157.594C208.216 157.508 207.647 157.565 207.533 157.879ZM211.322 161.582C211.236 162.893 211.151 163.092 210.609 163.177C209.983 163.263 209.954 163.177 209.954 161.696C209.954 160.186 209.983 160.101 210.695 160.101C211.379 160.101 211.407 160.158 211.322 161.582Z" fill="#FF0000"/>
<path d="M143.151 175.199C142.353 176.453 142.41 176.909 143.407 176.909C144.148 176.909 146.284 174.829 146.028 174.373C145.914 174.202 145.373 174.06 144.86 174.06C144.005 174.06 143.749 174.231 143.151 175.199Z" fill="#FF0000"/>
<path d="M109.906 177.364C108.367 178.162 107.826 180.47 108.652 182.407C108.851 182.919 109.592 183.831 110.247 184.458C111.672 185.825 112.241 186.822 112.241 188.019C112.241 188.788 112.156 188.873 111.415 188.873C110.675 188.873 110.561 188.759 110.475 187.933C110.39 187.079 110.333 187.022 109.25 187.022H108.111L108.139 188.247C108.196 190.497 110.361 191.922 112.669 191.152C113.979 190.725 114.805 189.415 114.805 187.819C114.805 186.082 114.464 185.398 112.526 183.318C111.102 181.78 110.817 181.324 110.817 180.47C110.817 179.615 110.903 179.472 111.501 179.472C112.099 179.472 112.213 179.643 112.298 180.384C112.384 181.267 112.441 181.324 113.523 181.324C114.549 181.324 114.663 181.239 114.748 180.555C114.805 180.128 114.634 179.33 114.35 178.76C113.552 177.051 111.586 176.453 109.906 177.364Z" fill="#FF0000"/>
<path d="M165.172 177.364C163.633 178.162 163.092 180.47 163.918 182.407C164.118 182.919 164.858 183.831 165.513 184.458C166.938 185.825 167.508 186.822 167.508 188.019C167.508 188.788 167.422 188.873 166.681 188.873C165.941 188.873 165.827 188.759 165.741 187.933C165.656 187.079 165.599 187.022 164.516 187.022C163.491 187.022 163.377 187.107 163.234 187.848C163.149 188.389 162.779 186.737 162.266 183.432C161.81 180.555 161.326 177.963 161.183 177.678C160.984 177.279 160.642 177.193 159.446 177.25L157.993 177.336L156.91 183.888C156.34 187.478 155.913 190.611 155.97 190.811C156.056 191.067 156.483 191.152 157.167 191.095C158.192 191.01 158.249 190.953 158.392 189.87C158.534 188.788 158.591 188.731 159.616 188.645C160.614 188.56 160.671 188.589 160.671 189.358C160.671 190.64 161.24 191.209 162.38 191.095C163.348 191.01 163.377 190.981 163.32 189.87C163.263 189.244 163.32 188.93 163.405 189.158C163.776 190.041 165.086 191.152 165.969 191.323C168.22 191.751 170.071 190.155 170.071 187.819C170.071 186.082 169.73 185.398 167.792 183.318C166.368 181.78 166.083 181.324 166.083 180.47C166.083 179.615 166.169 179.472 166.767 179.472C167.365 179.472 167.479 179.643 167.565 180.384C167.65 181.267 167.707 181.324 168.79 181.324C169.815 181.324 169.929 181.239 170.014 180.555C170.071 180.128 169.901 179.33 169.616 178.76C168.818 177.051 166.852 176.453 165.172 177.364ZM160.072 185.512C160.101 186.139 159.958 186.31 159.531 186.31C158.961 186.31 158.933 186.196 159.132 184.515C159.246 183.546 159.389 182.606 159.503 182.464C159.673 182.179 160.044 184.116 160.072 185.512Z" fill="#FF0000"/>
<path d="M93.2687 177.564C93.2117 177.763 93.1832 180.868 93.2117 184.458L93.2972 191.01L95.2059 191.095C97.6843 191.209 99.0232 190.668 99.5645 189.329C99.8779 188.589 99.9918 187.164 99.9918 184.173C99.9918 179.273 99.7069 178.247 98.1686 177.621C96.8866 177.079 93.4681 177.051 93.2687 177.564ZM97.2855 184.173V188.446L96.5163 188.532L95.7187 188.617V184.173V179.729L96.5163 179.814L97.2855 179.9V184.173Z" fill="#FF0000"/>
<path d="M102.442 177.535C101.986 178.96 100.305 190.725 100.533 190.953C100.647 191.067 101.217 191.152 101.73 191.095C102.613 191.01 102.698 190.925 102.841 189.87C102.983 188.788 103.04 188.731 104.066 188.645C105.034 188.56 105.12 188.617 105.12 189.301C105.12 190.583 105.604 191.152 106.686 191.152C107.199 191.152 107.712 191.067 107.769 190.925C107.94 190.668 105.889 178.02 105.604 177.535C105.461 177.336 104.778 177.193 103.952 177.193C103.068 177.193 102.499 177.336 102.442 177.535ZM104.521 185.512C104.55 186.139 104.407 186.309 103.98 186.309C103.41 186.309 103.382 186.196 103.581 184.515C103.695 183.546 103.838 182.606 103.952 182.464C104.123 182.179 104.493 184.116 104.521 185.512Z" fill="#FF0000"/>
<path d="M118.651 177.535C118.566 177.763 118.537 180.868 118.566 184.458L118.651 191.01H119.791H120.93L121.016 188.247L121.101 185.483L122.298 185.398C123.494 185.312 123.494 185.312 123.494 184.173C123.494 183.033 123.494 183.033 122.298 182.948L121.073 182.862V181.324V179.786L122.725 179.7L124.349 179.615V178.475V177.336L121.557 177.25C119.477 177.193 118.737 177.279 118.651 177.535Z" fill="#FF0000"/>
<path d="M126.087 177.535C125.631 178.96 123.95 190.725 124.178 190.953C124.292 191.067 124.862 191.152 125.374 191.095C126.257 191.01 126.343 190.925 126.485 189.87C126.628 188.788 126.685 188.731 127.71 188.645C128.679 188.56 128.764 188.617 128.764 189.301C128.764 190.583 129.249 191.152 130.331 191.152C130.844 191.152 131.357 191.067 131.414 190.925C131.585 190.668 129.534 178.02 129.249 177.535C129.106 177.336 128.423 177.193 127.596 177.193C126.713 177.193 126.144 177.336 126.087 177.535ZM128.166 185.512C128.195 186.139 128.052 186.309 127.625 186.309C127.055 186.309 127.027 186.196 127.226 184.515C127.34 183.546 127.482 182.606 127.596 182.464C127.767 182.179 128.138 184.116 128.166 185.512Z" fill="#FF0000"/>
<path d="M132.297 177.564C132.24 177.763 132.211 180.868 132.24 184.458L132.325 191.01H133.322H134.319L134.433 187.876L134.547 184.743L135.003 187.876C135.459 190.981 135.459 191.01 136.257 191.095C136.712 191.152 137.225 191.038 137.453 190.868C137.653 190.697 137.994 189.301 138.194 187.648L138.593 184.743L138.735 187.876L138.878 191.01H140.017H141.157V184.173V177.336L139.789 177.25C139.02 177.193 138.251 177.307 138.051 177.45C137.852 177.621 137.51 179.131 137.311 180.811C137.111 182.521 136.855 184.116 136.741 184.401C136.655 184.714 136.371 183.375 136.086 181.353C135.829 179.359 135.544 177.621 135.459 177.478C135.203 177.051 132.468 177.136 132.297 177.564Z" fill="#FF0000"/>
<path d="M142.581 177.535C142.495 177.735 142.467 180.868 142.495 184.458L142.581 191.01H143.72H144.86V184.173V177.336L143.777 177.25C143.094 177.193 142.666 177.279 142.581 177.535Z" fill="#FF0000"/>
<path d="M146.284 177.535C146.199 177.735 146.17 180.868 146.199 184.458L146.284 191.01H149.133H151.982V189.87V188.731L150.358 188.645L148.706 188.56L148.649 182.948L148.563 177.336L147.481 177.25C146.797 177.193 146.37 177.279 146.284 177.535Z" fill="#FF0000"/>
<path d="M152.836 177.535C152.751 177.735 152.722 180.868 152.751 184.458L152.836 191.01H153.976H155.115V184.173V177.336L154.033 177.25C153.349 177.193 152.922 177.279 152.836 177.535Z" fill="#FF0000"/>
</svg>
